<?xml version="1.0" encoding="UTF-8"?>
<svg id="Layer_1" data-name="Layer 1" xmlns="http://www.w3.org/2000/svg" viewBox="0 0 558.73 541.91">
  <defs>
    <style>
      .cls-1 {
        fill: #9bbd66;
      }
    </style>
  </defs>
  <path class="cls-1" d="M156.03,474.37c-1.78,0-3.54-.57-5.01-1.66-2.14-1.59-3.39-4.11-3.38-6.78,0-1.22.37-30.33,13.21-64.63,17.17-45.86,48.66-78.98,91.04-95.78,2.51-.99,5.35-.72,7.62.74,2.27,1.46,3.7,3.92,3.84,6.62,3.37,65.46-25.27,105.81-49.9,128.12-26.59,24.1-53.83,32.65-54.97,33-.81.25-1.64.37-2.46.37Z"/>
  <path class="cls-1" d="M190,290.14c-33.76,0-60.43-10.99-79.08-22.49-30.55-18.83-46.35-42.6-47.01-43.61-1.46-2.23-1.78-5.03-.84-7.53.93-2.5,3.01-4.41,5.57-5.13,1.18-.33,29.23-8.09,65.75-5.31,48.83,3.72,89.41,24.73,117.35,60.77,1.65,2.13,2.18,4.93,1.41,7.52-.77,2.59-2.74,4.65-5.29,5.53-21.09,7.31-40.43,10.25-57.87,10.25Z"/>
  <path class="cls-1" d="M282.08,259.36h-.05c-2.7-.02-5.23-1.34-6.79-3.54-37.87-53.5-35.25-102.91-26.39-134.94,9.57-34.59,28.01-56.38,28.79-57.29,1.74-2.03,4.34-3.11,7-2.9,2.66.2,5.07,1.66,6.48,3.92.65,1.04,15.92,25.82,23.42,61.67,10.02,47.93,1.15,92.76-25.68,129.63-1.58,2.17-4.1,3.45-6.78,3.45Z"/>
  <path class="cls-1" d="M362.1,297.79c-17.69,0-35.26-3.08-52.42-9.28-2.54-.92-4.48-3-5.22-5.6-.73-2.6-.17-5.39,1.51-7.5,40.84-51.27,89.02-62.52,122.25-62.93,35.91-.45,61.95,11.19,63.04,11.69,2.43,1.1,4.19,3.3,4.74,5.91.55,2.61-.18,5.33-1.96,7.32-.82.91-20.36,22.48-52.71,39.67-25.94,13.79-52.71,20.73-79.24,20.73Z"/>
  <path class="cls-1" d="M388.25,481.25c-1.24,0-2.49-.28-3.64-.83-1.1-.53-27.26-13.3-52.78-39.58-34.11-35.13-50.59-77.75-47.66-123.26.17-2.7,1.64-5.14,3.93-6.57,2.29-1.43,5.13-1.67,7.63-.64,60.62,24.94,84.84,68.09,94.49,99.89,10.42,34.34,6.5,62.62,6.33,63.8-.38,2.64-2,4.95-4.36,6.2-1.23.65-2.58.98-3.94.98Z"/>
</svg>