<?xml version="1.0" encoding="UTF-8"?>
<svg id="Layer_1" data-name="Layer 1" xmlns="http://www.w3.org/2000/svg" viewBox="0 0 1207 676.4">
  <defs>
    <style>
      .cls-1 {
        fill: #9bbd66;
      }

      .cls-2 {
        fill: #8a5e4a;
      }
    </style>
  </defs>
  <path class="cls-2" d="M152.97,385.33c-54.64,0-91.36-45.12-91.36-112.28,0-81.45,49.22-110.35,91.36-110.35,54.65,0,91.36,45.25,91.36,112.6,0,76.01-45.89,110.03-91.36,110.03ZM141.14,184.83c-40.78,0-57.41,23.13-57.41,79.82,0,62.63,28.72,98.54,78.79,98.54,40.78,0,57.41-23.31,57.41-80.47,0-62.22-28.72-97.9-78.79-97.9Z"/>
  <path class="cls-2" d="M314.51,384.04c-32.23,0-48.57-21.81-48.57-64.82v-29.06c0-29.68-.75-47.08-2.66-62.06-.18-1.44.26-2.88,1.21-3.97.95-1.08,2.33-1.7,3.78-1.7h17.74c1.46,0,2.85.63,3.8,1.73.96,1.1,1.39,2.57,1.18,4.02-2.44,16.8-2.94,36.92-2.94,61.97v22.6c0,38.88,7.34,50.12,32.72,50.12,29.39,0,41.93-16.44,41.93-54.96v-17.76c0-29.65-.75-47.05-2.66-62.06-.18-1.44.26-2.88,1.21-3.96.95-1.08,2.33-1.7,3.78-1.7h17.74c1.46,0,2.85.63,3.8,1.73.96,1.1,1.39,2.57,1.18,4.02-2.44,16.8-2.94,36.92-2.94,61.97v24.22c0,27.94.68,46.03,4.29,61.55.35,1.51,0,3.07-.96,4.28-.96,1.21-2.39,1.9-3.93,1.9h-16.48c-2.78,0-5.03-2.26-5.03-5.04v-21.57l-2.34,4.04c-10.04,16.28-25.45,24.5-45.85,24.5Z"/>
  <path class="cls-2" d="M479.4,384.25c-31.14,0-46.27-17.3-46.27-52.88v-88.86h-21.94c-1.49,0-2.89-.66-3.84-1.81-.95-1.15-1.33-2.65-1.05-4.12l1.92-9.91c.45-2.34,2.51-4.03,4.89-4.03h19.93c-.28-10.6-.6-21.26-1.16-33.95-.1-2.36,1.47-4.49,3.75-5.07l15.14-3.84c1.57-.4,3.24,0,4.46,1.03,1.22,1.04,1.87,2.61,1.73,4.21-1.14,13-1.39,32.54-1.39,35.6,0,1.05.07,1.66.14,2.01h51.55c1.44,0,2.81.62,3.76,1.71.95,1.09,1.38,2.53,1.18,3.96l-1.46,10.5c-.35,2.53-2.62,4.36-5.11,4.29-18.91-.59-33.65-.59-49.25-.59h-1.35c-.25,4.48-.2,9.53-.15,14.85.02,2.25.04,4.54.04,6.86v60.37c0,25.77,0,37.53,26.46,37.53,15.74,0,25.65-3.87,28.31-5.05,1.72-.76,3.69-.51,5.14.67,1.46,1.18,2.13,3.07,1.74,4.91l-2.59,12.27c-.37,1.72-1.57,3.09-3.22,3.67l-.68.24c-4.97,1.76-15.3,5.42-30.67,5.42ZM508.66,372.63s0,0,0,0h0ZM455.29,222.61h0Z"/>
  <path class="cls-2" d="M554.36,504.48h-17.33c-1.48,0-2.91-.63-3.9-1.72-.99-1.09-1.48-2.56-1.33-4.02,2.05-21.24,2.69-108.25,2.69-137.54v-70.71c0-27.9-.63-46-3.97-61.69-.33-1.57.05-3.18,1.06-4.42,1-1.24,2.49-1.94,4.08-1.94h15.68c2.9,0,5.26,2.36,5.26,5.26v10.64c11.33-11.69,25.77-17.84,41.93-17.84,30.15,0,65.36,21.38,65.36,81.61s-35.97,81.93-69.63,81.93c-13.81,0-27.41-3.78-37.64-10.41.14,34.87,1.15,107.03,2.98,125.08.15,1.47-.33,2.94-1.32,4.04-1,1.1-2.42,1.73-3.91,1.73ZM556.6,371.61h0ZM592.61,242.63c-25.24,0-36.01,11.03-36.01,36.88v54.56c1.57,21.68,26.05,29.45,46.54,29.45,28.4,0,37.98-13.22,37.98-52.38,0-47.39-14.96-68.52-48.51-68.52Z"/>
  <path class="cls-2" d="M968.41,384.66c-21.72,0-41.15-5.82-48.39-8.91-2.36-1-3.6-3.54-2.95-6.04h0s3.25-12.51,3.25-12.51c.38-1.48,1.39-2.7,2.76-3.35,1.38-.66,2.98-.67,4.37-.04,12.78,5.78,28.89,8.71,47.87,8.71,28,0,29.42-6.41,29.42-16.86,0-25.52-20.44-33.57-42.08-42.09-21.38-8.42-43.49-17.13-43.49-43.79,0-24.58,19.15-38.67,52.52-38.67,17.25,0,31.67,4.92,41.02,8.62,2.38.94,3.71,3.53,3.11,6.02l-3.21,13.08c-.39,1.59-1.47,2.87-2.97,3.52-1.49.64-3.16.55-4.56-.25-9.7-5.53-26.6-8.84-45.23-8.84-17.46,0-18.23,2.33-18.23,10.4,0,19.42,17.07,25.66,36.83,32.88,23,8.4,49.08,17.93,49.08,51.71,0,29.5-21.55,46.42-59.11,46.42ZM923.18,371.3h0Z"/>
  <path class="cls-2" d="M1107.89,384.66c-31.14,0-46.27-17.3-46.27-52.87v-88.86h-22.64c-1.32,0-2.56-.58-3.4-1.6-.84-1.02-1.18-2.35-.92-3.64l2.15-11.06c.4-2.07,2.22-3.57,4.32-3.57h20.41c-.29-10.76-.61-21.59-1.18-34.42-.1-2.08,1.3-3.97,3.32-4.48l16.38-4.15c1.4-.35,2.87,0,3.95.92,1.08.93,1.65,2.33,1.52,3.75-1.19,12.94-1.46,33.19-1.46,36.38,0,1.05.07,1.66.14,2.01h52.21c1.28,0,2.49.55,3.33,1.52.83.96,1.21,2.24,1.03,3.5l-1.62,11.67c-.31,2.23-2.12,3.9-4.52,3.8-19.16-.61-34.03-.61-49.77-.61h-1.35c-.25,4.49-.2,9.55-.15,14.87.02,2.24.04,4.53.04,6.84v60.37c0,25.77,0,37.53,26.46,37.53,13.28,0,23.79-2.82,29.2-5.47,1.52-.74,3.3-.56,4.63.48,1.34,1.04,1.95,2.73,1.6,4.39l-2.9,13.72c-.32,1.52-1.39,2.74-2.87,3.25l-.97.34c-4.97,1.76-15.3,5.42-30.67,5.42ZM1136.22,374.35s0,0,0,0h0ZM1137.46,372.94s-.01,0-.02,0h.02ZM1134.51,227.2h0s0,0,0,0ZM1083.78,223.03h0ZM1066.66,188.35h0s0,0,0,0Z"/>
  <g>
    <path class="cls-1" d="M727.2,382.55c-1.03,0-2.06-.32-2.92-.93-1.31-.93-2.1-2.43-2.12-4.03-.04-2.42-.29-59.6,50.1-80.87,1.49-.63,3.21-.5,4.59.34,1.39.85,2.28,2.31,2.4,3.93,4.59,62.33-49.91,81.12-50.46,81.3-.52.17-1.05.26-1.59.26Z"/>
    <path class="cls-1" d="M737.62,284.08c-39.66,0-61.65-31.17-61.91-31.55-.91-1.32-1.14-3-.61-4.52.53-1.52,1.75-2.69,3.28-3.16,2.32-.7,57.16-16.88,91.62,25.59,1.02,1.26,1.38,2.94.95,4.51-.43,1.57-1.58,2.83-3.11,3.4-10.98,4.08-21.08,5.74-30.23,5.74Z"/>
    <path class="cls-1" d="M790.47,263.13c-1.6,0-3.1-.76-4.05-2.04-37.22-50.2-1.24-95.24-.87-95.69,1.02-1.24,2.58-1.92,4.17-1.84,1.6.09,3.07.93,3.95,2.28,1.33,2.03,32.14,50.2.94,95.12-.93,1.33-2.44,2.14-4.06,2.17h-.08Z"/>
    <path class="cls-1" d="M835.4,286.12c-7.81,0-16.12-1.22-24.83-4.16-1.54-.52-2.74-1.75-3.21-3.3-.48-1.55-.18-3.24.81-4.53,37.85-49.73,91.12-27.71,91.66-27.48,1.48.63,2.56,1.93,2.93,3.49.36,1.57-.04,3.21-1.09,4.43-1.31,1.53-27.62,31.55-66.27,31.55Z"/>
    <path class="cls-1" d="M848.62,383.45c-.71,0-1.42-.15-2.09-.45-2.21-1-54.01-25.21-51.69-79.86.07-1.62.92-3.11,2.27-4,1.36-.89,3.07-1.07,4.58-.49,58.3,22.5,52,79.8,51.93,80.37-.19,1.59-1.14,3-2.54,3.79-.76.43-1.61.64-2.47.64Z"/>
  </g>
  <path class="cls-1" d="M296.08,501.84h-7.59v-23.9c0-3.14-.4-4.84-1.43-6.06-1.19-1.44-3.54-2.34-6.13-2.34-3.02,0-5.64,1.04-7.59,3-1.9,1.85-2.57,3.54-2.57,6.44v22.86h-7.59v-37.65h7.59v4.52c3.43-3.82,6.93-5.4,11.85-5.4,3.79,0,7.28,1.11,9.81,3.12,2.69,2.32,3.64,4.97,3.64,10.15v25.26Z"/>
  <path class="cls-1" d="M325.19,502.72c-11.47,0-19.8-8.24-19.8-19.58s8.4-19.83,19.98-19.83c6,0,10.5,1.95,14.44,6.29v-5.41h7.59v37.65h-7.59v-6.35c-4.03,4.99-8.58,7.23-14.62,7.23ZM326.35,469.54c-4.38,0-7.37,1.31-9.7,4.25h0c-2.1,2.59-3.31,6.05-3.31,9.51,0,7.61,5.52,13.36,12.84,13.36s13.73-6.28,13.73-14-5.57-13.11-13.55-13.11Z"/>
  <path class="cls-1" d="M374.32,501.84h-6.74c-5.05-.08-7.1-1.87-7.1-6.15v-25.35h-5.72v-6.15h5.72v-11.59h7.59v11.59h6.26v6.15h-6.26v23.58c.07,1.52.32,1.85,2.73,1.85h3.53v6.07Z"/>
  <path class="cls-1" d="M398.16,502.72c-4.69,0-9.11-1.46-12.15-4.01-2.86-2.48-4.25-5.93-4.25-10.54v-23.98h7.59v23.83c0,4.99,3.62,8.48,8.81,8.48,2.79,0,5.43-1,7.05-2.68,1.25-1.34,1.68-2.77,1.68-5.64v-23.98h7.68v23.98c0,5.21-1.15,8.09-4.26,10.62-3.11,2.53-7.42,3.93-12.14,3.93Z"/>
  <path class="cls-1" d="M433.87,501.84h-7.59v-37.65h7.59v4.97c.92-1.67,1.77-2.6,3.13-3.54,2.1-1.47,5.05-2.31,8.09-2.31h2.01v7l-.44-.05c-.69-.08-1.38-.08-1.83-.08-3.57,0-6.63,1.45-8.62,4.08-1.75,2.26-2.33,4.4-2.33,8.47v19.11Z"/>
  <path class="cls-1" d="M469.78,502.72c-11.47,0-19.8-8.24-19.8-19.58s8.4-19.83,19.98-19.83c6,0,10.5,1.95,14.44,6.29v-5.41h7.59v37.65h-7.59v-6.35c-4.03,4.99-8.58,7.23-14.62,7.23ZM470.94,469.54c-4.38,0-7.37,1.31-9.7,4.25h0c-2.1,2.59-3.31,6.05-3.31,9.51,0,7.61,5.52,13.36,12.84,13.36s13.73-6.28,13.73-14-5.57-13.11-13.55-13.11Z"/>
  <path class="cls-1" d="M512.48,501.84h-7.59v-54.12h7.59v54.12Z"/>
  <path class="cls-1" d="M585.99,501.19h-8.22v-34.12h-6.11v-6.67h6.11v-4.94c0-8.13,4.76-12.99,12.73-12.99.38,0,1.28,0,2.08.09l.38.04v6.67l-.39.04c-5.11.5-6.4,1.71-6.58,6.17v4.92h6.97v6.67h-6.97v34.12Z"/>
  <path class="cls-1" d="M620.33,502.14c-13.54,0-23-8.8-23-21.39s9.58-21.3,23.29-21.3,23,9.03,23,21.48-10.23,21.22-23.29,21.22ZM620.63,466.37c-8.9,0-14.88,5.81-14.88,14.46s5.94,14.38,14.78,14.38,14.68-5.91,14.68-14.38-5.86-14.46-14.58-14.46Z"/>
  <path class="cls-1" d="M673.42,502.14c-13.54,0-23-8.8-23-21.39s9.58-21.3,23.29-21.3,23,9.03,23,21.48-10.23,21.22-23.29,21.22ZM673.71,466.37c-8.9,0-14.88,5.81-14.88,14.46s5.94,14.38,14.78,14.38,14.68-5.91,14.68-14.38-5.86-14.46-14.58-14.46Z"/>
  <path class="cls-1" d="M724.96,502.14c-12.63,0-21.45-8.69-21.45-21.13s9.22-21.57,21.45-21.57c6.35,0,11.32,2.03,15.55,6.36v-23.25h8.22v58.63h-8.22v-6.1c-4.34,4.93-9.05,7.05-15.55,7.05ZM726.51,466.19c-8.61,0-14.39,5.99-14.39,14.9s5.72,14.47,13.91,14.47,14.49-6.16,14.49-14.64-5.63-14.73-14-14.73Z"/>
  <path class="cls-1" d="M775.72,502.14c-10.38,0-16.29-4.39-17.09-12.69l-.05-.47h8.12l.04.38c.46,4.28,3.56,6.54,8.97,6.54,4.8,0,7.9-2.14,7.9-5.46s-2.39-4.82-9.83-6.51c-9.95-2.4-14.38-6.25-14.38-12.46,0-7.2,6.48-12.04,16.12-12.04s15.63,4.47,16.03,12.28l.02.45h-8.24v-.86c0-3.42-3.18-5.63-8.09-5.63s-7.61,2.02-7.61,5.28c0,3.01,1.33,4.28,9.65,6.34,5.71,1.38,8.81,2.7,11.03,4.69,2.37,2.11,3.73,5.07,3.73,8.12,0,7.2-6.56,12.04-16.32,12.04Z"/>
</svg>