<svg width="39" height="39" viewBox="0 0 39 39" fill="none" xmlns="http://www.w3.org/2000/svg">
<g clip-path="url(#clip0_135_104)">
<path d="M19.5 0C8.7293 0 0 8.7293 0 19.5C0 27.7646 5.1416 34.8182 12.3932 37.6594C12.2256 36.1131 12.0656 33.7518 12.4617 32.0684C12.8197 30.5449 14.7469 22.3793 14.7469 22.3793C14.7469 22.3793 14.1604 21.2139 14.1604 19.4848C14.1604 16.773 15.7295 14.7469 17.6871 14.7469C19.3477 14.7469 20.1551 15.9961 20.1551 17.4967C20.1551 19.1725 19.0887 21.6709 18.5402 23.9865C18.0832 25.9289 19.5152 27.5133 21.4271 27.5133C24.893 27.5133 27.559 23.857 27.559 18.5859C27.559 13.9166 24.2074 10.6488 19.4162 10.6488C13.8709 10.6488 10.6107 14.8078 10.6107 19.1115C10.6107 20.7873 11.2582 22.585 12.0656 23.56C12.2256 23.7504 12.2484 23.9256 12.2027 24.116C12.058 24.733 11.7229 26.0584 11.6619 26.325C11.5781 26.683 11.3801 26.7592 11.0068 26.584C8.56934 25.449 7.0459 21.8918 7.0459 19.0277C7.0459 12.873 11.5172 7.22871 19.9266 7.22871C26.6906 7.22871 31.9465 12.0504 31.9465 18.4945C31.9465 25.2129 27.7113 30.6211 21.8309 30.6211C19.858 30.6211 17.9994 29.5928 17.3596 28.3816C17.3596 28.3816 16.3846 32.1064 16.1484 33.0205C15.7066 34.7115 14.5184 36.8367 13.7262 38.1316C15.5543 38.6953 17.4891 39 19.5 39C30.2707 39 39 30.2707 39 19.5C39 8.7293 30.2707 0 19.5 0Z" fill="#E0DDDA"/>
</g>
<defs>
<clipPath id="clip0_135_104">
<rect width="39" height="39" fill="white"/>
</clipPath>
</defs>
</svg>
