<svg width="43" height="43" viewBox="0 0 43 43" fill="none" xmlns="http://www.w3.org/2000/svg">
<path d="M42.5717 12.9001C42.5717 12.9001 42.1518 9.93545 40.8584 8.63369C39.2207 6.92041 37.3898 6.91201 36.55 6.81123C30.5367 6.37451 21.5084 6.37451 21.5084 6.37451H21.4916C21.4916 6.37451 12.4633 6.37451 6.45 6.81123C5.61016 6.91201 3.7793 6.92041 2.1416 8.63369C0.848242 9.93545 0.436719 12.9001 0.436719 12.9001C0.436719 12.9001 0 16.3854 0 19.8624V23.121C0 26.5979 0.42832 30.0833 0.42832 30.0833C0.42832 30.0833 0.848242 33.048 2.1332 34.3497C3.7709 36.063 5.9209 36.0042 6.87832 36.189C10.3217 36.5165 21.5 36.6173 21.5 36.6173C21.5 36.6173 30.5367 36.6005 36.55 36.1722C37.3898 36.0714 39.2207 36.063 40.8584 34.3497C42.1518 33.048 42.5717 30.0833 42.5717 30.0833C42.5717 30.0833 43 26.6063 43 23.121V19.8624C43 16.3854 42.5717 12.9001 42.5717 12.9001ZM17.0572 27.0767V14.9913L28.6723 21.055L17.0572 27.0767Z" fill="#E0DDDA"/>
</svg>
